<?xml version="1.0" encoding="UTF-8"?>
<svg xmlns="http://www.w3.org/2000/svg" viewBox="0 0 1080 1080">
  <defs>
    <style>
      .cls-1 {
        fill: #fff;
      }

      .cls-2 {
        fill: red;
      }
    </style>
  </defs>
  <g id="Capa_3" data-name="Capa 3">
    <rect class="cls-1" x="0" y="0" width="1080" height="1080" rx="540" ry="540"/>
  </g>
  <g id="Capa_5" data-name="Capa 5">
    <g>
      <path class="cls-2" d="M847.05,545.94c-1,.35-2,.71-3.02,1.06-54.59,18.91-131.93,32.61-220.64,37.97-10.12.61-20.15-2.3-28.42-8.16l-40.51-28.72c-5.89-4.18-14.06-2.79-18.24,3.11h0c-4.18,5.89-2.79,14.06,3.11,18.24l15.33,10.87c3.09,2.19,1.57,7.07-2.22,7.1-4.22.04-8.45.06-12.7.06v-.04h-99.22c-7.2,0-13.38,5.63-13.51,12.84-.13,7.34,5.77,13.33,13.08,13.33l73.21.26c2.09,0,3.98,1.43,4.39,3.48.56,2.82-1.58,5.28-4.3,5.27l-73.29-.26c-7.31,0-13.21,5.99-13.08,13.33.13,7.2,6.31,12.84,13.51,12.84h72.91c2.37,0,4.49,1.77,4.62,4.14.13,2.52-1.87,4.61-4.37,4.61h-73.15c-7.2,0-13.38,5.63-13.51,12.84-.13,7.34,5.77,13.33,13.08,13.33h73.61c2.4,0,4.35,1.95,4.35,4.35h0c0,2.4-1.95,4.35-4.35,4.35h-73.18c-7.2,0-13.38,5.64-13.51,12.84-.13,7.34,5.77,13.33,13.08,13.33h99.66c123.28,0,233.13-15.81,304.29-40.46,52.69-18.25,84.18-41.35,84.18-66.47v-130.82c0,24.64-30.29,47.33-81.16,65.41Z"/>
      <path class="cls-2" d="M837.42,402.18c-69.5-24.65-176.77-40.46-297.16-40.46-146.98,0-274.43,23.56-337.43,58.01-26.8,14.66-41.94,31.29-41.94,48.91,0,24.2,28.55,46.53,76.65,64.45.86.32,1.73.64,2.61.96,69.39-25.26,178-41.52,300.11-41.52s227.66,15.81,297.16,40.46c.99.35,1.97.7,2.95,1.06,49.68-18.08,79.26-40.77,79.26-65.41s-30.75-48.22-82.21-66.47Z"/>
      <path class="cls-2" d="M427.12,688.19c-6.73-3.03-11.42-9.77-11.42-17.63s4.69-14.61,11.42-17.63c-6.73-3.03-11.42-9.77-11.42-17.63s4.69-14.61,11.42-17.63c-6.73-3.03-11.42-9.77-11.42-17.63s4.74-14.68,11.53-17.68c-77.97-6.52-145.56-19.6-194.28-36.92l-2.67-.96c-49.26-17.92-78.49-40.24-78.49-64.45v130.82c0,24.2,29.23,46.53,78.49,64.45,46.75,17.01,111.54,30.05,186.54,36.96-.71-2.01-1.12-4.17-1.12-6.43,0-7.86,4.69-14.61,11.42-17.63Z"/>
    </g>
  </g>
</svg>